<svg width="12" height="15" viewBox="0 0 12 15" fill="none" xmlns="http://www.w3.org/2000/svg">
<path d="M11.0271 5.24281C10.9463 5.30581 9.52073 6.11369 9.52073 7.91006C9.52073 9.98786 11.3347 10.7229 11.389 10.7411C11.3807 10.7859 11.1008 11.7479 10.4326 12.7279C9.8368 13.5905 9.21446 14.4515 8.26786 14.4515C7.3212 14.4515 7.0776 13.8985 5.98475 13.8985C4.91977 13.8985 4.54111 14.4697 3.6752 14.4697C2.8093 14.4697 2.20511 13.6717 1.51044 12.6915C0.705789 11.5407 0.0556641 9.75266 0.0556641 8.05566C0.0556641 5.33381 1.81532 3.89027 3.54712 3.89027C4.46732 3.89027 5.23439 4.49793 5.81212 4.49793C6.36202 4.49793 7.2196 3.85387 8.26646 3.85387C8.6632 3.85387 10.0887 3.89027 11.0271 5.24281ZM7.76946 2.70155C8.2024 2.1849 8.50866 1.46803 8.50866 0.751155C8.50866 0.651745 8.50033 0.550935 8.4822 0.469727C7.7778 0.496329 6.93973 0.941574 6.4344 1.53103C6.03765 1.98468 5.66734 2.70155 5.66734 3.42822C5.66734 3.53743 5.68544 3.64665 5.69379 3.68165C5.73834 3.69005 5.81073 3.69985 5.88312 3.69985C6.51515 3.69985 7.31006 3.27421 7.76946 2.70155Z" fill="white"/>
</svg>
