<svg width="13" height="15" viewBox="0 0 13 15" fill="none" xmlns="http://www.w3.org/2000/svg">
<path d="M0.88174 0.0595703L7.96687 7.05957L0.882435 14.0596C0.756458 14.0073 0.648951 13.9193 0.573433 13.8068C0.497915 13.6943 0.457757 13.5623 0.458009 13.4274V0.69181C0.458062 0.556993 0.498263 0.425169 0.573607 0.31275C0.648951 0.200331 0.756109 0.112284 0.88174 0.0595703ZM8.45879 7.54544L10.0605 9.12744L2.45073 13.4795L8.45879 7.54544ZM10.6846 5.34771L12.6376 6.46512C12.7431 6.52554 12.8306 6.61225 12.8915 6.71657C12.9523 6.82089 12.9843 6.93918 12.9843 7.05957C12.9843 7.17996 12.9523 7.29824 12.8915 7.40257C12.8306 7.50691 12.7431 7.59363 12.6376 7.65398L10.6839 8.7714L8.9507 7.05957L10.6846 5.34771ZM2.45073 0.639582L10.0612 4.99104L8.45879 6.5737L2.45073 0.639582Z" fill="white"/>
</svg>
