<svg width="288" height="164" viewBox="0 0 288 164" fill="none" xmlns="http://www.w3.org/2000/svg">
<circle cx="158.7" cy="128.61" r="114.343" fill="#1079FF"/>
<path d="M261.089 50.9653C242.744 26.7737 216.425 9.8592 186.799 3.22019C157.173 -3.41881 126.153 0.646573 99.2385 14.6957C72.3237 28.7447 51.2528 51.87 39.7609 79.9719C28.2691 108.074 27.0986 139.337 36.4572 168.22C45.8157 197.102 65.0986 221.738 90.8876 237.76C116.677 253.782 147.306 260.156 177.345 255.75C207.385 251.345 234.894 236.446 254.997 213.694C275.1 190.941 286.497 161.806 287.169 131.453L286.184 131.431C285.518 161.552 274.208 190.464 254.259 213.042C234.31 235.619 207.012 250.405 177.202 254.776C147.393 259.148 116.999 252.823 91.4074 236.924C65.816 221.024 46.6809 196.577 37.3941 167.916C28.1073 139.255 29.2687 108.231 40.6725 80.3447C52.0763 52.4581 72.9857 29.5101 99.6942 15.5687C126.403 1.6273 157.185 -2.40692 186.584 4.1812C215.983 10.7693 242.1 27.5542 260.304 51.5604L261.089 50.9653Z" fill="#026BEF"/>
<path d="M67.79 100.784L41.9801 128.855L38.7967 90.3893L64.6065 62.3181L67.79 100.784Z" fill="#F37726"/>
<path d="M38.7971 90.3888L64.6069 62.3177L26.01 62.3685L0.200158 90.4397L38.7971 90.3888Z" fill="#F37726"/>
</svg>
