<svg width="16" height="11" viewBox="0 0 16 11" fill="none" xmlns="http://www.w3.org/2000/svg">
<path d="M5.39054 10.7773C8.26626 10.7773 10.5975 8.44607 10.5975 5.57035C10.5975 2.69463 8.26626 0.363403 5.39054 0.363403C2.51483 0.363403 0.183594 2.69463 0.183594 5.57035C0.183594 8.44607 2.51483 10.7773 5.39054 10.7773Z" fill="#FE626F"/>
<path d="M10.1855 10.7774C13.0612 10.7774 15.3924 8.4462 15.3924 5.57048C15.3924 2.69476 13.0612 0.363525 10.1855 0.363525C7.30975 0.363525 4.97852 2.69476 4.97852 5.57048C4.97852 8.4462 7.30975 10.7774 10.1855 10.7774Z" fill="#FEEDB7"/>
<path fill-rule="evenodd" clip-rule="evenodd" d="M7.78216 10.1946C9.45141 9.32726 10.5916 7.58242 10.5916 5.57125C10.5916 3.56008 9.45141 1.81521 7.78216 0.947876C6.1129 1.81521 4.97266 3.56008 4.97266 5.57125C4.97266 7.58242 6.1129 9.32726 7.78216 10.1946Z" fill="#FFAA85"/>
</svg>
